<?xml version="1.0" encoding="UTF-8"?>
<!DOCTYPE svg PUBLIC "-//W3C//DTD SVG 1.1//EN" "http://www.w3.org/Graphics/SVG/1.1/DTD/svg11.dtd">
<svg xmlns="http://www.w3.org/2000/svg" version="1.1" viewbox="0 0 100 100" width="85px" height="85px" style="shape-rendering:geometricPrecision; text-rendering:geometricPrecision; image-rendering:optimizeQuality; fill-rule:evenodd; clip-rule:evenodd" xmlns:xlink="http://www.w3.org/1999/xlink">
<g transform="translate(0 12)" >
  <g><path style="opacity:1" fill="#f8b20c" d="M 22.5,-0.5 C 24.5,-0.5 26.5,-0.5 28.5,-0.5C 33.7761,1.47619 38.4428,4.47619 42.5,8.5C 41.3747,10.1288 40.0414,11.6288 38.5,13C 40.0414,14.3712 41.3747,15.8712 42.5,17.5C 40.5372,18.9599 38.7038,20.6266 37,22.5C 34.1312,19.2959 30.9646,16.4626 27.5,14C 25.8333,13.3333 24.1667,13.3333 22.5,14C 18.4479,16.3764 17.6146,19.5431 20,23.5C 23.7002,27.5352 27.7002,31.2019 32,34.5C 32.6667,40.8333 32.6667,47.1667 32,53.5C 24.3333,45.8333 16.6667,38.1667 9,30.5C 5.96678,25.8945 4.96678,20.8945 6,15.5C 9.43775,7.89337 14.9377,2.56003 22.5,-0.5 Z"/></g>
  <g><path style="opacity:1" fill="#e60913" d="M 62.5,0.5 C 77.6676,5.8281 82.1676,15.8281 76,30.5C 68.6308,37.7018 61.4641,45.0351 54.5,52.5C 53.5111,47.0247 53.1778,41.358 53.5,35.5C 57.1296,31.369 60.963,27.369 65,23.5C 66.3014,21.6354 66.6347,19.6354 66,17.5C 64.0934,13.9904 61.2601,12.8238 57.5,14C 54.0354,16.4626 50.8688,19.2959 48,22.5C 46.2962,20.6266 44.4628,18.9599 42.5,17.5C 41.3747,15.8712 40.0414,14.3712 38.5,13C 40.0414,11.6288 41.3747,10.1288 42.5,8.5C 47.8112,2.51316 54.4779,-0.153509 62.5,0.5 Z"/></g>
  <g><path style="opacity:1" fill="#ec474d" d="M 53.5,35.5 C 53.1778,41.358 53.5111,47.0247 54.5,52.5C 54.44,53.0431 54.1067,53.3764 53.5,53.5C 52.1834,47.3456 52.1834,41.3456 53.5,35.5 Z"/></g>
</g>
</svg>
